<svg xmlns="http://www.w3.org/2000/svg" width="130.075" height="128" viewBox="0 0 130.075 128"><defs><style>.a{fill:#e2e5e7;}.b{fill:#cad1d8;}.c{fill:#b0b7bd;}.d{fill:#576d7e;}.e,.g{fill:#fff;}.e{font-size:24px;font-family:SegoeUI-Bold, Segoe UI;font-weight:700;letter-spacing:0.022em;}.f{fill:#80c9c4;}</style></defs><g transform="translate(-733 -634)"><path class="a" d="M8.085,0H64.755L96.045,31.216v.825L96.015,120a8.043,8.043,0,0,1-8.085,8H8.085A8.043,8.043,0,0,1,0,120V8A8.043,8.043,0,0,1,8.085,0Z" transform="translate(767.03 634)"/><path class="b" d="M863.075,690.2V665.549H838.293Z"/><path class="c" d="M0,0H.8L32.075,31.244V32H7.243A7.124,7.124,0,0,1,0,25Z" transform="translate(831 634)"/><rect class="d" width="96" height="48" rx="4" transform="translate(751 694)"/><text class="e" transform="translate(799 726)"><tspan x="-22.09" y="0">RFC</tspan></text><circle class="f" cx="18.5" cy="18.5" r="18.5" transform="translate(733 676)"/><rect class="g" width="4" height="21" rx="2" transform="translate(749.5 684)"/><rect class="g" width="4" height="21" rx="2" transform="translate(762 692.5) rotate(90)"/></g></svg>