<svg xmlns="http://www.w3.org/2000/svg" width="319.64" height="38" viewBox="0 0 319.64 38"><defs><style>.a{fill:#1374b0;}.b,.d{fill:#fff;}.b{font-size:14px;font-family:SegoeUI, Segoe UI;letter-spacing:0.025em;}.c{fill:#005687;}</style></defs><rect class="a" width="319.64" height="38" rx="19"/><text class="b" transform="translate(154.001 23.754)"><tspan x="-82.664" y="0">Inicia sesión con Linkedin</tspan></text><path class="c" d="M19,0H46.053a0,0,0,0,1,0,0V38a0,0,0,0,1,0,0H19A19,19,0,0,1,0,19v0A19,19,0,0,1,19,0Z"/><g transform="translate(-734.551 -580.776)"><rect class="d" width="3.281" height="10.601" transform="translate(751.563 596.527)"/><path class="d" d="M753.188,595.139a1.956,1.956,0,1,0-1.94-1.956A1.948,1.948,0,0,0,753.188,595.139Z"/><path class="d" d="M760.089,601.563c0-1.49.686-2.378,2-2.378,1.206,0,1.786.852,1.786,2.378v5.565h3.266v-6.712c0-2.84-1.609-4.212-3.857-4.212a3.7,3.7,0,0,0-3.2,1.751v-1.428h-3.147v10.6h3.147Z"/></g></svg>