<svg xmlns="http://www.w3.org/2000/svg" xmlns:xlink="http://www.w3.org/1999/xlink" width="56" height="56.001" viewBox="0 0 56 56.001"><defs><style>.a{fill:url(#a);}</style><linearGradient id="a" x2="1" y2="1" gradientUnits="objectBoundingBox"><stop offset="0" stop-color="#80c9c4"/><stop offset="1" stop-color="#aad2bf"/></linearGradient></defs><path class="a" d="M56,56H12A12,12,0,0,1,0,44V12A12,12,0,0,1,12,0H44A12,12,0,0,1,56,12V56ZM36.651,38.627l5.24,3.248V27.225h-.009a14.314,14.314,0,1,0-5.231,11.4Zm-9.08-.427A10.644,10.644,0,1,1,35.1,35.082,10.575,10.575,0,0,1,27.571,38.2Z"/></svg>