<svg xmlns="http://www.w3.org/2000/svg" xmlns:xlink="http://www.w3.org/1999/xlink" width="247.375" height="56.49" viewBox="0 0 247.375 56.49"><defs><style>.a{fill:#3b444d;}.b{fill:url(#a);}.c{fill:#80c9c4;font-size:12.958px;font-family:SegoeUI, Segoe UI;}.d{fill:none;stroke:#c4c7ca;stroke-miterlimit:10;stroke-width:0.283px;}</style><linearGradient id="a" x1="0.146" y1="0.146" x2="1" y2="1" gradientUnits="objectBoundingBox"><stop offset="0" stop-color="#80c9c4"/><stop offset="1" stop-color="#aad2bf"/></linearGradient></defs><g transform="translate(-756.472 -183.184)"><path class="a" d="M905.557,235.722a.584.584,0,0,1-1.168,0l-.012-2.886H898.72l0,2.886a.584.584,0,0,1-1.168,0l.005-5.506a4.133,4.133,0,0,1,1.729-3.379,3.453,3.453,0,0,1,1.607-.632,4.546,4.546,0,0,1,1.453.026,3.653,3.653,0,0,1,2.565,1.794,4.761,4.761,0,0,1,.648,2.529Zm-1.18-3.95c0-.337,0-.657,0-.978a5.5,5.5,0,0,0-.157-1.457,2.721,2.721,0,0,0-3.562-1.949,2.765,2.765,0,0,0-1.9,2.553c-.065.577-.033,1.165-.043,1.748a.45.45,0,0,0,.012.083Z"/><path class="a" d="M881.193,227.884c-.257,0-.514-.215-.972-.372a4.124,4.124,0,0,0-1.43-.258c-1.474,0-2.189.558-2.189,1.573,0,.716.544,1.131,1.4,1.445a17.938,17.938,0,0,1,2.875,1,2.374,2.374,0,0,1,1.259,2.116c0,1.831-1.416,2.89-3.462,2.89a6.34,6.34,0,0,1-2.775-.687c-.286-.157-.543-.358-.543-.658a.541.541,0,0,1,.558-.558c.243,0,.4.244,1.044.53a3.859,3.859,0,0,0,1.716.386c1.545,0,2.231-.787,2.231-1.8,0-.744-.529-1.188-1.23-1.488-.858-.372-1.8-.5-2.832-1a2.288,2.288,0,0,1-1.444-2.146c0-1.6,1.2-2.589,3.447-2.589a6.064,6.064,0,0,1,2.231.415c.343.143.658.358.658.672A.515.515,0,0,1,881.193,227.884Z"/><path class="a" d="M890.236,226.4a3.484,3.484,0,0,1,2.246.687,3.105,3.105,0,0,1,1.144,2.517,3.15,3.15,0,0,1-1.23,2.589,3.763,3.763,0,0,1-2.3.615h-2.674v2.918a.573.573,0,0,1-1.145,0v-8.768a.572.572,0,0,1,.572-.558Zm1.4,1.444a2.522,2.522,0,0,0-1.573-.443h-2.646V231.8h2.488a3,3,0,0,0,1.674-.386,2.138,2.138,0,0,0,.887-1.817A2.006,2.006,0,0,0,891.638,227.84Z"/><path class="a" d="M916,227.983c-.229,0-.486-.257-1.058-.457a4.467,4.467,0,0,0-1.5-.229,3.957,3.957,0,0,0-3.891,3.962,3.864,3.864,0,0,0,3.891,3.991,4.51,4.51,0,0,0,1.516-.243c.629-.215.887-.472,1.116-.472a.528.528,0,0,1,.529.529c0,.329-.3.529-.7.715a5.772,5.772,0,0,1-2.446.5,4.895,4.895,0,0,1-5.092-5.021,5.093,5.093,0,0,1,5.092-4.992,5.691,5.691,0,0,1,2.389.472c.415.172.687.4.687.715A.511.511,0,0,1,916,227.983Z"/><path class="a" d="M921.341,235.121h5.45a.508.508,0,0,1,0,1.016h-6.022a.562.562,0,0,1-.572-.558v-8.625a.562.562,0,0,1,.572-.558h6.022a.508.508,0,0,1,0,1.015h-5.45v3.333h4.706a.511.511,0,0,1,.5.515.5.5,0,0,1-.5.5h-4.706Z"/><path class="b" d="M795.882,205.225a14.313,14.313,0,1,0-5.23,11.4l5.239,3.248V205.225ZM781.571,216.2a10.645,10.645,0,1,1,10.645-10.645A10.645,10.645,0,0,1,781.571,216.2Z"/><path class="a" d="M838.708,210.087a9.564,9.564,0,1,0-3.495,7.617l3.5,2.17v-9.787Zm-9.562,6.165a5.945,5.945,0,1,1,5.946-5.945A5.945,5.945,0,0,1,829.146,216.252Z"/><path class="a" d="M927.095,210.087A9.562,9.562,0,1,0,923.6,217.7l3.5,2.17v-9.787Zm-9.561,6.165a5.945,5.945,0,1,1,5.945-5.945A5.945,5.945,0,0,1,917.534,216.252Z"/><path class="b" d="M766.537,188.1a5.033,5.033,0,1,0-1.839,4.008l1.842,1.142V188.1Z"/><path class="a" d="M799.075,200.96v18.914h3.674v-15.24h4.536a6.194,6.194,0,0,1,6.194,6.194v9.046h.85a2.823,2.823,0,0,0,2.824-2.823v-6.032a10.06,10.06,0,0,0-10.059-10.059Z"/><path class="a" d="M0,0H0A3.671,3.671,0,0,1,3.671,3.671V28.695a0,0,0,0,1,0,0H0a0,0,0,0,1,0,0V0A0,0,0,0,1,0,0Z" transform="translate(841.598 191.217)"/><path class="a" d="M0,0H0A3.632,3.632,0,0,1,3.632,3.632V18.85a0,0,0,0,1,0,0H0a0,0,0,0,1,0,0V0A0,0,0,0,1,0,0Z" transform="translate(883.37 200.962)"/><path class="a" d="M862.641,200.96V216.2H858.1a6.194,6.194,0,0,1-6.194-6.194V200.96h-.881a2.793,2.793,0,0,0-2.793,2.793v6.062A10.058,10.058,0,0,0,858.3,219.874h4.387v7.076a2.573,2.573,0,0,0,2.573,2.573h1.059V200.96Z"/><path class="a" d="M873.064,213.423v-8.836h2.917a2.725,2.725,0,0,0,2.725-2.726v-.906h-5.642v-9.826H869.4v22.78a5.973,5.973,0,0,0,5.973,5.972h4.658v-.8a2.8,2.8,0,0,0-2.8-2.8h-1.311A2.858,2.858,0,0,1,873.064,213.423Z"/><circle class="a" cx="2.154" cy="2.154" r="2.154" transform="translate(882.976 194.658)"/><path class="a" d="M902.172,215.52a5.835,5.835,0,0,1-2.891.682,5.889,5.889,0,0,1,.14-11.777,5.876,5.876,0,0,1,4.8,2.492l2.717-2.489a9.56,9.56,0,1,0,.042,11.718l-1.687-.773A3.52,3.52,0,0,0,902.172,215.52Z"/><text class="c" transform="translate(948.847 207.674)"><tspan x="0" y="0">Data</tspan><tspan x="0" y="14.398">Driven</tspan><tspan x="0" y="28.796">Decisions</tspan></text><line class="d" y2="42.714" transform="translate(938.509 195.926)"/></g></svg>